<svg width="297" height="77" viewBox="0 0 297 77" fill="none" xmlns="http://www.w3.org/2000/svg">
<path d="M130.784 41.261C130.784 42.281 130.716 43.199 130.58 44.015H109.925C110.095 46.055 110.809 47.653 112.067 48.809C113.325 49.965 114.872 50.543 116.708 50.543C119.36 50.543 121.247 49.404 122.369 47.126H130.07C129.254 49.846 127.69 52.09 125.378 53.858C123.066 55.592 120.227 56.459 116.861 56.459C114.141 56.459 111.693 55.864 109.517 54.674C107.375 53.45 105.692 51.733 104.468 49.523C103.278 47.313 102.683 44.763 102.683 41.873C102.683 38.949 103.278 36.382 104.468 34.172C105.658 31.962 107.324 30.262 109.466 29.072C111.608 27.882 114.073 27.287 116.861 27.287C119.547 27.287 121.944 27.865 124.052 29.021C126.194 30.177 127.843 31.826 128.999 33.968C130.189 36.076 130.784 38.507 130.784 41.261ZM123.389 39.221C123.355 37.385 122.692 35.923 121.4 34.835C120.108 33.713 118.527 33.152 116.657 33.152C114.889 33.152 113.393 33.696 112.169 34.784C110.979 35.838 110.248 37.317 109.976 39.221H123.389ZM144.411 18.26V56H137.271V18.26H144.411ZM173.307 31.826C174.225 30.534 175.483 29.463 177.081 28.613C178.713 27.729 180.566 27.287 182.64 27.287C185.054 27.287 187.23 27.882 189.168 29.072C191.14 30.262 192.687 31.962 193.809 34.172C194.965 36.348 195.543 38.881 195.543 41.771C195.543 44.661 194.965 47.228 193.809 49.472C192.687 51.682 191.14 53.399 189.168 54.623C187.23 55.847 185.054 56.459 182.64 56.459C180.566 56.459 178.73 56.034 177.132 55.184C175.568 54.334 174.293 53.263 173.307 51.971V69.464H166.167V27.746H173.307V31.826ZM188.25 41.771C188.25 40.071 187.893 38.609 187.179 37.385C186.499 36.127 185.581 35.175 184.425 34.529C183.303 33.883 182.079 33.56 180.753 33.56C179.461 33.56 178.237 33.9 177.081 34.58C175.959 35.226 175.041 36.178 174.327 37.436C173.647 38.694 173.307 40.173 173.307 41.873C173.307 43.573 173.647 45.052 174.327 46.31C175.041 47.568 175.959 48.537 177.081 49.217C178.237 49.863 179.461 50.186 180.753 50.186C182.079 50.186 183.303 49.846 184.425 49.166C185.581 48.486 186.499 47.517 187.179 46.259C187.893 45.001 188.25 43.505 188.25 41.771ZM214.553 56.459C211.833 56.459 209.385 55.864 207.209 54.674C205.033 53.45 203.316 51.733 202.058 49.523C200.834 47.313 200.222 44.763 200.222 41.873C200.222 38.983 200.851 36.433 202.109 34.223C203.401 32.013 205.152 30.313 207.362 29.123C209.572 27.899 212.037 27.287 214.757 27.287C217.477 27.287 219.942 27.899 222.152 29.123C224.362 30.313 226.096 32.013 227.354 34.223C228.646 36.433 229.292 38.983 229.292 41.873C229.292 44.763 228.629 47.313 227.303 49.523C226.011 51.733 224.243 53.45 221.999 54.674C219.789 55.864 217.307 56.459 214.553 56.459ZM214.553 50.237C215.845 50.237 217.052 49.931 218.174 49.319C219.33 48.673 220.248 47.721 220.928 46.463C221.608 45.205 221.948 43.675 221.948 41.873C221.948 39.187 221.234 37.13 219.806 35.702C218.412 34.24 216.695 33.509 214.655 33.509C212.615 33.509 210.898 34.24 209.504 35.702C208.144 37.13 207.464 39.187 207.464 41.873C207.464 44.559 208.127 46.633 209.453 48.095C210.813 49.523 212.513 50.237 214.553 50.237ZM262.834 27.746L245.341 69.362H237.742L243.862 55.286L232.54 27.746H240.547L247.84 47.483L255.235 27.746H262.834ZM280.504 56.459C277.784 56.459 275.336 55.864 273.16 54.674C270.984 53.45 269.267 51.733 268.009 49.523C266.785 47.313 266.173 44.763 266.173 41.873C266.173 38.983 266.802 36.433 268.06 34.223C269.352 32.013 271.103 30.313 273.313 29.123C275.523 27.899 277.988 27.287 280.708 27.287C283.428 27.287 285.893 27.899 288.103 29.123C290.313 30.313 292.047 32.013 293.305 34.223C294.597 36.433 295.243 38.983 295.243 41.873C295.243 44.763 294.58 47.313 293.254 49.523C291.962 51.733 290.194 53.45 287.95 54.674C285.74 55.864 283.258 56.459 280.504 56.459ZM280.504 50.237C281.796 50.237 283.003 49.931 284.125 49.319C285.281 48.673 286.199 47.721 286.879 46.463C287.559 45.205 287.899 43.675 287.899 41.873C287.899 39.187 287.185 37.13 285.757 35.702C284.363 34.24 282.646 33.509 280.606 33.509C278.566 33.509 276.849 34.24 275.455 35.702C274.095 37.13 273.415 39.187 273.415 41.873C273.415 44.559 274.078 46.633 275.404 48.095C276.764 49.523 278.464 50.237 280.504 50.237Z" fill="#FFFCF4"/>
<circle cx="28.5" cy="40.5" r="27" stroke="#FFAA00" stroke-width="3"/>
<circle cx="57.5" cy="40.5" r="27" stroke="#FFAA00" stroke-width="3"/>
<line x1="35.0607" y1="23.9393" x2="55.0607" y2="43.9393" stroke="#FFAA00" stroke-width="3"/>
<line x1="33.0607" y1="30.9393" x2="53.0607" y2="50.9393" stroke="#FFAA00" stroke-width="3"/>
<line x1="31.0607" y1="38.9393" x2="49.6434" y2="57.5221" stroke="#FFAA00" stroke-width="3"/>
<line x1="31.0607" y1="46.9393" x2="46.1079" y2="61.9866" stroke="#FFAA00" stroke-width="3"/>
<line x1="40.0607" y1="20.9393" x2="55.1079" y2="35.9866" stroke="#FFAA00" stroke-width="3"/>
</svg>
