<svg xmlns="http://www.w3.org/2000/svg" width="297" height="77" fill="none" viewBox="0 0 297 77">
  <path fill="#003165" d="M130.784 41.261c0 1.02-.068 1.938-.204 2.754h-20.655c.17 2.04.884 3.638 2.142 4.794 1.258 1.156 2.805 1.734 4.641 1.734 2.652 0 4.539-1.139 5.661-3.417h7.701c-.816 2.72-2.38 4.964-4.692 6.732-2.312 1.734-5.151 2.601-8.517 2.601-2.72 0-5.168-.595-7.344-1.785-2.142-1.224-3.825-2.941-5.049-5.151-1.19-2.21-1.785-4.76-1.785-7.65 0-2.924.595-5.491 1.785-7.701s2.856-3.91 4.998-5.1c2.142-1.19 4.607-1.785 7.395-1.785 2.686 0 5.083.578 7.191 1.734a11.962 11.962 0 0 1 4.947 4.947c1.19 2.108 1.785 4.539 1.785 7.293Zm-7.395-2.04c-.034-1.836-.697-3.298-1.989-4.386-1.292-1.122-2.873-1.683-4.743-1.683-1.768 0-3.264.544-4.488 1.632-1.19 1.054-1.921 2.533-2.193 4.437h13.413Zm21.022-20.961V56h-7.14V18.26h7.14Zm28.896 13.566c.918-1.292 2.176-2.363 3.774-3.213 1.632-.884 3.485-1.326 5.559-1.326 2.414 0 4.59.595 6.528 1.785 1.972 1.19 3.519 2.89 4.641 5.1 1.156 2.176 1.734 4.709 1.734 7.599 0 2.89-.578 5.457-1.734 7.701-1.122 2.21-2.669 3.927-4.641 5.151-1.938 1.224-4.114 1.836-6.528 1.836-2.074 0-3.91-.425-5.508-1.275-1.564-.85-2.839-1.921-3.825-3.213v17.493h-7.14V27.746h7.14v4.08Zm14.943 9.945c0-1.7-.357-3.162-1.071-4.386-.68-1.258-1.598-2.21-2.754-2.856a7.231 7.231 0 0 0-3.672-.969c-1.292 0-2.516.34-3.672 1.02-1.122.646-2.04 1.598-2.754 2.856-.68 1.258-1.02 2.737-1.02 4.437 0 1.7.34 3.179 1.02 4.437.714 1.258 1.632 2.227 2.754 2.907a7.415 7.415 0 0 0 3.672.969c1.326 0 2.55-.34 3.672-1.02 1.156-.68 2.074-1.649 2.754-2.907.714-1.258 1.071-2.754 1.071-4.488Zm26.303 14.688c-2.72 0-5.168-.595-7.344-1.785-2.176-1.224-3.893-2.941-5.151-5.151-1.224-2.21-1.836-4.76-1.836-7.65 0-2.89.629-5.44 1.887-7.65 1.292-2.21 3.043-3.91 5.253-5.1 2.21-1.224 4.675-1.836 7.395-1.836 2.72 0 5.185.612 7.395 1.836 2.21 1.19 3.944 2.89 5.202 5.1 1.292 2.21 1.938 4.76 1.938 7.65 0 2.89-.663 5.44-1.989 7.65a13.552 13.552 0 0 1-5.304 5.151c-2.21 1.19-4.692 1.785-7.446 1.785Zm0-6.222a7.444 7.444 0 0 0 3.621-.918c1.156-.646 2.074-1.598 2.754-2.856.68-1.258 1.02-2.788 1.02-4.59 0-2.686-.714-4.743-2.142-6.171-1.394-1.462-3.111-2.193-5.151-2.193-2.04 0-3.757.731-5.151 2.193-1.36 1.428-2.04 3.485-2.04 6.171 0 2.686.663 4.76 1.989 6.222 1.36 1.428 3.06 2.142 5.1 2.142Zm48.281-22.491-17.493 41.616h-7.599l6.12-14.076-11.322-27.54h8.007l7.293 19.737 7.395-19.737h7.599Zm17.67 28.713c-2.72 0-5.168-.595-7.344-1.785-2.176-1.224-3.893-2.941-5.151-5.151-1.224-2.21-1.836-4.76-1.836-7.65 0-2.89.629-5.44 1.887-7.65 1.292-2.21 3.043-3.91 5.253-5.1 2.21-1.224 4.675-1.836 7.395-1.836 2.72 0 5.185.612 7.395 1.836 2.21 1.19 3.944 2.89 5.202 5.1 1.292 2.21 1.938 4.76 1.938 7.65 0 2.89-.663 5.44-1.989 7.65a13.552 13.552 0 0 1-5.304 5.151c-2.21 1.19-4.692 1.785-7.446 1.785Zm0-6.222a7.444 7.444 0 0 0 3.621-.918c1.156-.646 2.074-1.598 2.754-2.856.68-1.258 1.02-2.788 1.02-4.59 0-2.686-.714-4.743-2.142-6.171-1.394-1.462-3.111-2.193-5.151-2.193-2.04 0-3.757.731-5.151 2.193-1.36 1.428-2.04 3.485-2.04 6.171 0 2.686.663 4.76 1.989 6.222 1.36 1.428 3.06 2.142 5.1 2.142Z"/>
  <circle cx="28.5" cy="40.5" r="27" stroke="#FA0" stroke-width="3"/>
  <circle cx="57.5" cy="40.5" r="27" stroke="#FA0" stroke-width="3"/>
  <path stroke="#FA0" stroke-width="3" d="m35.061 23.939 20 20m-22-13 20 20m-22-12 18.582 18.583M31.061 46.939l15.047 15.048m-6.047-41.048 15.047 15.048"/>
</svg>
